<mxfile host="app.diagrams.net" agent="Mozilla/5.0 (Windows NT 10.0; Win64; x64) AppleWebKit/537.36 (KHTML, like Gecko) Chrome/134.0.0.0 Safari/537.36" version="26.1.3">
  <diagram id="C5RBs43oDa-KdzZeNtuy" name="Page-1">
    <mxGraphModel dx="2544" dy="1036" grid="1" gridSize="10" guides="1" tooltips="1" connect="1" arrows="1" fold="1" page="1" pageScale="1" pageWidth="827" pageHeight="1169" math="0" shadow="0">
      <root>
        <mxCell id="WIyWlLk6GJQsqaUBKTNV-0" />
        <mxCell id="WIyWlLk6GJQsqaUBKTNV-1" parent="WIyWlLk6GJQsqaUBKTNV-0" />
        <mxCell id="2KHYEN3B9HOBNsR7ACnq-0" value="" style="ellipse;whiteSpace=wrap;html=1;" vertex="1" parent="WIyWlLk6GJQsqaUBKTNV-1">
          <mxGeometry x="-436.6" y="20" width="72" height="48" as="geometry" />
        </mxCell>
        <mxCell id="2KHYEN3B9HOBNsR7ACnq-12" style="edgeStyle=none;curved=1;rounded=0;orthogonalLoop=1;jettySize=auto;html=1;exitX=0;exitY=1;exitDx=0;exitDy=0;entryX=1;entryY=0;entryDx=0;entryDy=0;fontSize=12;startSize=8;endSize=8;" edge="1" parent="WIyWlLk6GJQsqaUBKTNV-1" source="2KHYEN3B9HOBNsR7ACnq-1" target="2KHYEN3B9HOBNsR7ACnq-3">
          <mxGeometry relative="1" as="geometry" />
        </mxCell>
        <mxCell id="2KHYEN3B9HOBNsR7ACnq-13" style="edgeStyle=none;curved=1;rounded=0;orthogonalLoop=1;jettySize=auto;html=1;exitX=1;exitY=1;exitDx=0;exitDy=0;fontSize=12;startSize=8;endSize=8;" edge="1" parent="WIyWlLk6GJQsqaUBKTNV-1" source="2KHYEN3B9HOBNsR7ACnq-1" target="2KHYEN3B9HOBNsR7ACnq-2">
          <mxGeometry relative="1" as="geometry">
            <mxPoint x="-53.367095101377004" y="60.71540905205006" as="sourcePoint" />
          </mxGeometry>
        </mxCell>
        <mxCell id="2KHYEN3B9HOBNsR7ACnq-1" value="영화관&lt;div&gt;(CGV)&lt;/div&gt;" style="ellipse;whiteSpace=wrap;html=1;" vertex="1" parent="WIyWlLk6GJQsqaUBKTNV-1">
          <mxGeometry x="-436.6" y="20" width="72" height="48" as="geometry" />
        </mxCell>
        <mxCell id="2KHYEN3B9HOBNsR7ACnq-14" style="edgeStyle=none;curved=1;rounded=0;orthogonalLoop=1;jettySize=auto;html=1;exitX=1;exitY=1;exitDx=0;exitDy=0;fontSize=12;startSize=8;endSize=8;" edge="1" parent="WIyWlLk6GJQsqaUBKTNV-1" source="2KHYEN3B9HOBNsR7ACnq-2" target="2KHYEN3B9HOBNsR7ACnq-9">
          <mxGeometry relative="1" as="geometry" />
        </mxCell>
        <mxCell id="2KHYEN3B9HOBNsR7ACnq-15" style="edgeStyle=none;curved=1;rounded=0;orthogonalLoop=1;jettySize=auto;html=1;exitX=0;exitY=1;exitDx=0;exitDy=0;entryX=1;entryY=0;entryDx=0;entryDy=0;fontSize=12;startSize=8;endSize=8;" edge="1" parent="WIyWlLk6GJQsqaUBKTNV-1" source="2KHYEN3B9HOBNsR7ACnq-2" target="2KHYEN3B9HOBNsR7ACnq-7">
          <mxGeometry relative="1" as="geometry" />
        </mxCell>
        <mxCell id="2KHYEN3B9HOBNsR7ACnq-18" style="edgeStyle=none;curved=1;rounded=0;orthogonalLoop=1;jettySize=auto;html=1;exitX=0.5;exitY=1;exitDx=0;exitDy=0;entryX=0.5;entryY=0;entryDx=0;entryDy=0;fontSize=12;startSize=8;endSize=8;" edge="1" parent="WIyWlLk6GJQsqaUBKTNV-1" source="2KHYEN3B9HOBNsR7ACnq-2" target="2KHYEN3B9HOBNsR7ACnq-8">
          <mxGeometry relative="1" as="geometry" />
        </mxCell>
        <mxCell id="2KHYEN3B9HOBNsR7ACnq-2" value="여의도 점" style="ellipse;whiteSpace=wrap;html=1;" vertex="1" parent="WIyWlLk6GJQsqaUBKTNV-1">
          <mxGeometry x="29.399999999999977" y="86" width="72" height="48" as="geometry" />
        </mxCell>
        <mxCell id="2KHYEN3B9HOBNsR7ACnq-11" style="edgeStyle=none;curved=1;rounded=0;orthogonalLoop=1;jettySize=auto;html=1;exitX=0;exitY=1;exitDx=0;exitDy=0;fontSize=12;startSize=8;endSize=8;" edge="1" parent="WIyWlLk6GJQsqaUBKTNV-1" source="2KHYEN3B9HOBNsR7ACnq-3" target="2KHYEN3B9HOBNsR7ACnq-4">
          <mxGeometry relative="1" as="geometry" />
        </mxCell>
        <mxCell id="2KHYEN3B9HOBNsR7ACnq-16" style="edgeStyle=none;curved=1;rounded=0;orthogonalLoop=1;jettySize=auto;html=1;exitX=1;exitY=1;exitDx=0;exitDy=0;entryX=0;entryY=0;entryDx=0;entryDy=0;fontSize=12;startSize=8;endSize=8;" edge="1" parent="WIyWlLk6GJQsqaUBKTNV-1" source="2KHYEN3B9HOBNsR7ACnq-3" target="2KHYEN3B9HOBNsR7ACnq-6">
          <mxGeometry relative="1" as="geometry" />
        </mxCell>
        <mxCell id="2KHYEN3B9HOBNsR7ACnq-17" style="edgeStyle=none;curved=1;rounded=0;orthogonalLoop=1;jettySize=auto;html=1;exitX=0.5;exitY=1;exitDx=0;exitDy=0;entryX=0.5;entryY=0;entryDx=0;entryDy=0;fontSize=12;startSize=8;endSize=8;" edge="1" parent="WIyWlLk6GJQsqaUBKTNV-1" source="2KHYEN3B9HOBNsR7ACnq-3" target="2KHYEN3B9HOBNsR7ACnq-5">
          <mxGeometry relative="1" as="geometry" />
        </mxCell>
        <mxCell id="2KHYEN3B9HOBNsR7ACnq-3" value="영등포 점" style="ellipse;whiteSpace=wrap;html=1;" vertex="1" parent="WIyWlLk6GJQsqaUBKTNV-1">
          <mxGeometry x="-700" y="86" width="72" height="48" as="geometry" />
        </mxCell>
        <mxCell id="2KHYEN3B9HOBNsR7ACnq-24" style="edgeStyle=none;curved=1;rounded=0;orthogonalLoop=1;jettySize=auto;html=1;exitX=0.5;exitY=1;exitDx=0;exitDy=0;entryX=0.5;entryY=0;entryDx=0;entryDy=0;fontSize=12;startSize=8;endSize=8;" edge="1" parent="WIyWlLk6GJQsqaUBKTNV-1" source="2KHYEN3B9HOBNsR7ACnq-4" target="2KHYEN3B9HOBNsR7ACnq-22">
          <mxGeometry relative="1" as="geometry" />
        </mxCell>
        <mxCell id="2KHYEN3B9HOBNsR7ACnq-25" style="edgeStyle=none;curved=1;rounded=0;orthogonalLoop=1;jettySize=auto;html=1;exitX=0.5;exitY=1;exitDx=0;exitDy=0;entryX=0.5;entryY=0;entryDx=0;entryDy=0;fontSize=12;startSize=8;endSize=8;" edge="1" parent="WIyWlLk6GJQsqaUBKTNV-1" source="2KHYEN3B9HOBNsR7ACnq-4" target="2KHYEN3B9HOBNsR7ACnq-23">
          <mxGeometry relative="1" as="geometry" />
        </mxCell>
        <mxCell id="2KHYEN3B9HOBNsR7ACnq-26" style="edgeStyle=none;curved=1;rounded=0;orthogonalLoop=1;jettySize=auto;html=1;exitX=0.5;exitY=1;exitDx=0;exitDy=0;entryX=0.5;entryY=0;entryDx=0;entryDy=0;fontSize=12;startSize=8;endSize=8;" edge="1" parent="WIyWlLk6GJQsqaUBKTNV-1" source="2KHYEN3B9HOBNsR7ACnq-4" target="2KHYEN3B9HOBNsR7ACnq-20">
          <mxGeometry relative="1" as="geometry" />
        </mxCell>
        <mxCell id="2KHYEN3B9HOBNsR7ACnq-27" style="edgeStyle=none;curved=1;rounded=0;orthogonalLoop=1;jettySize=auto;html=1;exitX=0.5;exitY=1;exitDx=0;exitDy=0;entryX=0.5;entryY=0;entryDx=0;entryDy=0;fontSize=12;startSize=8;endSize=8;" edge="1" parent="WIyWlLk6GJQsqaUBKTNV-1" source="2KHYEN3B9HOBNsR7ACnq-4" target="2KHYEN3B9HOBNsR7ACnq-21">
          <mxGeometry relative="1" as="geometry" />
        </mxCell>
        <mxCell id="2KHYEN3B9HOBNsR7ACnq-4" value="상영관" style="ellipse;whiteSpace=wrap;html=1;" vertex="1" parent="WIyWlLk6GJQsqaUBKTNV-1">
          <mxGeometry x="-880" y="152" width="72" height="48" as="geometry" />
        </mxCell>
        <mxCell id="2KHYEN3B9HOBNsR7ACnq-49" style="edgeStyle=none;curved=1;rounded=0;orthogonalLoop=1;jettySize=auto;html=1;exitX=0.5;exitY=1;exitDx=0;exitDy=0;entryX=0.5;entryY=0;entryDx=0;entryDy=0;fontSize=12;startSize=8;endSize=8;" edge="1" parent="WIyWlLk6GJQsqaUBKTNV-1" source="2KHYEN3B9HOBNsR7ACnq-5" target="2KHYEN3B9HOBNsR7ACnq-46">
          <mxGeometry relative="1" as="geometry" />
        </mxCell>
        <mxCell id="2KHYEN3B9HOBNsR7ACnq-50" style="edgeStyle=none;curved=1;rounded=0;orthogonalLoop=1;jettySize=auto;html=1;exitX=0.5;exitY=1;exitDx=0;exitDy=0;entryX=0.5;entryY=0;entryDx=0;entryDy=0;fontSize=12;startSize=8;endSize=8;" edge="1" parent="WIyWlLk6GJQsqaUBKTNV-1" source="2KHYEN3B9HOBNsR7ACnq-5" target="2KHYEN3B9HOBNsR7ACnq-47">
          <mxGeometry relative="1" as="geometry" />
        </mxCell>
        <mxCell id="2KHYEN3B9HOBNsR7ACnq-51" style="edgeStyle=none;curved=1;rounded=0;orthogonalLoop=1;jettySize=auto;html=1;exitX=0.5;exitY=1;exitDx=0;exitDy=0;entryX=0.5;entryY=0;entryDx=0;entryDy=0;fontSize=12;startSize=8;endSize=8;" edge="1" parent="WIyWlLk6GJQsqaUBKTNV-1" source="2KHYEN3B9HOBNsR7ACnq-5" target="2KHYEN3B9HOBNsR7ACnq-48">
          <mxGeometry relative="1" as="geometry" />
        </mxCell>
        <mxCell id="2KHYEN3B9HOBNsR7ACnq-5" value="푸드" style="ellipse;whiteSpace=wrap;html=1;" vertex="1" parent="WIyWlLk6GJQsqaUBKTNV-1">
          <mxGeometry x="-700" y="152" width="72" height="48" as="geometry" />
        </mxCell>
        <mxCell id="2KHYEN3B9HOBNsR7ACnq-38" style="edgeStyle=none;curved=1;rounded=0;orthogonalLoop=1;jettySize=auto;html=1;exitX=0.5;exitY=1;exitDx=0;exitDy=0;entryX=0.5;entryY=0;entryDx=0;entryDy=0;fontSize=12;startSize=8;endSize=8;" edge="1" parent="WIyWlLk6GJQsqaUBKTNV-1" source="2KHYEN3B9HOBNsR7ACnq-6" target="2KHYEN3B9HOBNsR7ACnq-37">
          <mxGeometry relative="1" as="geometry" />
        </mxCell>
        <mxCell id="2KHYEN3B9HOBNsR7ACnq-6" value="예매" style="ellipse;whiteSpace=wrap;html=1;" vertex="1" parent="WIyWlLk6GJQsqaUBKTNV-1">
          <mxGeometry x="-508.6" y="152" width="72" height="48" as="geometry" />
        </mxCell>
        <mxCell id="2KHYEN3B9HOBNsR7ACnq-34" style="edgeStyle=none;curved=1;rounded=0;orthogonalLoop=1;jettySize=auto;html=1;exitX=0.5;exitY=1;exitDx=0;exitDy=0;entryX=0.5;entryY=0;entryDx=0;entryDy=0;fontSize=12;startSize=8;endSize=8;" edge="1" parent="WIyWlLk6GJQsqaUBKTNV-1" source="2KHYEN3B9HOBNsR7ACnq-7" target="2KHYEN3B9HOBNsR7ACnq-28">
          <mxGeometry relative="1" as="geometry" />
        </mxCell>
        <mxCell id="2KHYEN3B9HOBNsR7ACnq-35" style="edgeStyle=none;curved=1;rounded=0;orthogonalLoop=1;jettySize=auto;html=1;exitX=0.5;exitY=1;exitDx=0;exitDy=0;entryX=0.5;entryY=0;entryDx=0;entryDy=0;fontSize=12;startSize=8;endSize=8;" edge="1" parent="WIyWlLk6GJQsqaUBKTNV-1" source="2KHYEN3B9HOBNsR7ACnq-7" target="2KHYEN3B9HOBNsR7ACnq-29">
          <mxGeometry relative="1" as="geometry" />
        </mxCell>
        <mxCell id="2KHYEN3B9HOBNsR7ACnq-45" style="edgeStyle=none;curved=1;rounded=0;orthogonalLoop=1;jettySize=auto;html=1;exitX=0.5;exitY=1;exitDx=0;exitDy=0;entryX=0.5;entryY=0;entryDx=0;entryDy=0;fontSize=12;startSize=8;endSize=8;" edge="1" parent="WIyWlLk6GJQsqaUBKTNV-1" source="2KHYEN3B9HOBNsR7ACnq-7" target="2KHYEN3B9HOBNsR7ACnq-44">
          <mxGeometry relative="1" as="geometry" />
        </mxCell>
        <mxCell id="2KHYEN3B9HOBNsR7ACnq-7" value="상영관" style="ellipse;whiteSpace=wrap;html=1;" vertex="1" parent="WIyWlLk6GJQsqaUBKTNV-1">
          <mxGeometry x="-160.00000000000006" y="152" width="72" height="48" as="geometry" />
        </mxCell>
        <mxCell id="2KHYEN3B9HOBNsR7ACnq-8" value="푸드" style="ellipse;whiteSpace=wrap;html=1;" vertex="1" parent="WIyWlLk6GJQsqaUBKTNV-1">
          <mxGeometry x="29.399999999999977" y="152" width="72" height="48" as="geometry" />
        </mxCell>
        <mxCell id="2KHYEN3B9HOBNsR7ACnq-42" style="edgeStyle=none;curved=1;rounded=0;orthogonalLoop=1;jettySize=auto;html=1;exitX=0.5;exitY=1;exitDx=0;exitDy=0;entryX=0.5;entryY=0;entryDx=0;entryDy=0;fontSize=12;startSize=8;endSize=8;" edge="1" parent="WIyWlLk6GJQsqaUBKTNV-1" source="2KHYEN3B9HOBNsR7ACnq-9" target="2KHYEN3B9HOBNsR7ACnq-41">
          <mxGeometry relative="1" as="geometry" />
        </mxCell>
        <mxCell id="2KHYEN3B9HOBNsR7ACnq-43" style="edgeStyle=none;curved=1;rounded=0;orthogonalLoop=1;jettySize=auto;html=1;exitX=0.5;exitY=1;exitDx=0;exitDy=0;entryX=0.5;entryY=0;entryDx=0;entryDy=0;fontSize=12;startSize=8;endSize=8;" edge="1" parent="WIyWlLk6GJQsqaUBKTNV-1" source="2KHYEN3B9HOBNsR7ACnq-9" target="2KHYEN3B9HOBNsR7ACnq-40">
          <mxGeometry relative="1" as="geometry" />
        </mxCell>
        <mxCell id="2KHYEN3B9HOBNsR7ACnq-9" value="예매" style="ellipse;whiteSpace=wrap;html=1;" vertex="1" parent="WIyWlLk6GJQsqaUBKTNV-1">
          <mxGeometry x="219.99999999999994" y="152" width="72" height="48" as="geometry" />
        </mxCell>
        <mxCell id="2KHYEN3B9HOBNsR7ACnq-20" value="4DX" style="ellipse;whiteSpace=wrap;html=1;" vertex="1" parent="WIyWlLk6GJQsqaUBKTNV-1">
          <mxGeometry x="-1000" y="250" width="72" height="48" as="geometry" />
        </mxCell>
        <mxCell id="2KHYEN3B9HOBNsR7ACnq-21" value="일반 상영관" style="ellipse;whiteSpace=wrap;html=1;" vertex="1" parent="WIyWlLk6GJQsqaUBKTNV-1">
          <mxGeometry x="-1090" y="250" width="72" height="48" as="geometry" />
        </mxCell>
        <mxCell id="2KHYEN3B9HOBNsR7ACnq-22" value="프라이빗" style="ellipse;whiteSpace=wrap;html=1;" vertex="1" parent="WIyWlLk6GJQsqaUBKTNV-1">
          <mxGeometry x="-827" y="250" width="72" height="48" as="geometry" />
        </mxCell>
        <mxCell id="2KHYEN3B9HOBNsR7ACnq-23" value="IMAX" style="ellipse;whiteSpace=wrap;html=1;" vertex="1" parent="WIyWlLk6GJQsqaUBKTNV-1">
          <mxGeometry x="-910" y="250" width="72" height="48" as="geometry" />
        </mxCell>
        <mxCell id="2KHYEN3B9HOBNsR7ACnq-28" value="4DX" style="ellipse;whiteSpace=wrap;html=1;" vertex="1" parent="WIyWlLk6GJQsqaUBKTNV-1">
          <mxGeometry x="-115" y="250" width="72" height="48" as="geometry" />
        </mxCell>
        <mxCell id="2KHYEN3B9HOBNsR7ACnq-29" value="일반 상영관" style="ellipse;whiteSpace=wrap;html=1;" vertex="1" parent="WIyWlLk6GJQsqaUBKTNV-1">
          <mxGeometry x="-205" y="250" width="72" height="48" as="geometry" />
        </mxCell>
        <mxCell id="2KHYEN3B9HOBNsR7ACnq-36" value="영화정보" style="ellipse;whiteSpace=wrap;html=1;" vertex="1" parent="WIyWlLk6GJQsqaUBKTNV-1">
          <mxGeometry x="-486.6" y="250" width="72" height="48" as="geometry" />
        </mxCell>
        <mxCell id="2KHYEN3B9HOBNsR7ACnq-37" value="좌석" style="ellipse;whiteSpace=wrap;html=1;" vertex="1" parent="WIyWlLk6GJQsqaUBKTNV-1">
          <mxGeometry x="-386.6" y="250" width="72" height="48" as="geometry" />
        </mxCell>
        <mxCell id="2KHYEN3B9HOBNsR7ACnq-39" style="edgeStyle=none;curved=1;rounded=0;orthogonalLoop=1;jettySize=auto;html=1;exitX=0.5;exitY=1;exitDx=0;exitDy=0;entryX=0.638;entryY=0.047;entryDx=0;entryDy=0;entryPerimeter=0;fontSize=12;startSize=8;endSize=8;" edge="1" parent="WIyWlLk6GJQsqaUBKTNV-1" source="2KHYEN3B9HOBNsR7ACnq-6" target="2KHYEN3B9HOBNsR7ACnq-36">
          <mxGeometry relative="1" as="geometry" />
        </mxCell>
        <mxCell id="2KHYEN3B9HOBNsR7ACnq-40" value="영화정보" style="ellipse;whiteSpace=wrap;html=1;" vertex="1" parent="WIyWlLk6GJQsqaUBKTNV-1">
          <mxGeometry x="220" y="250" width="72" height="48" as="geometry" />
        </mxCell>
        <mxCell id="2KHYEN3B9HOBNsR7ACnq-41" value="좌석" style="ellipse;whiteSpace=wrap;html=1;" vertex="1" parent="WIyWlLk6GJQsqaUBKTNV-1">
          <mxGeometry x="320" y="250" width="72" height="48" as="geometry" />
        </mxCell>
        <mxCell id="2KHYEN3B9HOBNsR7ACnq-44" value="CGV&lt;div&gt;아트하우스&lt;/div&gt;" style="ellipse;whiteSpace=wrap;html=1;" vertex="1" parent="WIyWlLk6GJQsqaUBKTNV-1">
          <mxGeometry x="-290" y="250" width="72" height="48" as="geometry" />
        </mxCell>
        <mxCell id="2KHYEN3B9HOBNsR7ACnq-46" value="팝콘" style="ellipse;whiteSpace=wrap;html=1;" vertex="1" parent="WIyWlLk6GJQsqaUBKTNV-1">
          <mxGeometry x="-740" y="250" width="72" height="48" as="geometry" />
        </mxCell>
        <mxCell id="2KHYEN3B9HOBNsR7ACnq-47" value="스낵" style="ellipse;whiteSpace=wrap;html=1;" vertex="1" parent="WIyWlLk6GJQsqaUBKTNV-1">
          <mxGeometry x="-660" y="250" width="72" height="48" as="geometry" />
        </mxCell>
        <mxCell id="2KHYEN3B9HOBNsR7ACnq-48" value="음료" style="ellipse;whiteSpace=wrap;html=1;" vertex="1" parent="WIyWlLk6GJQsqaUBKTNV-1">
          <mxGeometry x="-580.6" y="250" width="72" height="48" as="geometry" />
        </mxCell>
        <mxCell id="2KHYEN3B9HOBNsR7ACnq-52" value="팝콘" style="ellipse;whiteSpace=wrap;html=1;" vertex="1" parent="WIyWlLk6GJQsqaUBKTNV-1">
          <mxGeometry x="-30" y="250" width="72" height="48" as="geometry" />
        </mxCell>
        <mxCell id="2KHYEN3B9HOBNsR7ACnq-53" value="스낵" style="ellipse;whiteSpace=wrap;html=1;" vertex="1" parent="WIyWlLk6GJQsqaUBKTNV-1">
          <mxGeometry x="50" y="250" width="72" height="48" as="geometry" />
        </mxCell>
        <mxCell id="2KHYEN3B9HOBNsR7ACnq-54" value="음료" style="ellipse;whiteSpace=wrap;html=1;" vertex="1" parent="WIyWlLk6GJQsqaUBKTNV-1">
          <mxGeometry x="129.39999999999998" y="250" width="72" height="48" as="geometry" />
        </mxCell>
      </root>
    </mxGraphModel>
  </diagram>
</mxfile>
